{
  "accessors": [
    {
      "bufferView": 2,
      "componentType": 5126,
      "count": 65532,
      "max": [
        16.98241424560547,
        20.95505142211914,
        13.323369979858398
      ],
      "min": [
        -12.248757362365723,
        -13.52536392211914,
        -15.412473678588867
      ],
      "type": "VEC3"
    },
    {
      "bufferView": 2,
      "byteOffset": 786384,
      "componentType": 5126,
      "count": 65532,
      "max": [
        0.9999997019767761,
        0.8365762829780579,
        0.9999961256980896
      ],
      "min": [
        -0.9999998807907104,
        -0.9999997615814209,
        -0.9999939799308777
      ],
      "type": "VEC3"
    },
    {
      "bufferView": 3,
      "componentType": 5126,
      "count": 65532,
      "max": [
        0.7529410123825073,
        0.7529410123825073,
        0.7529410123825073,
        1.0
      ],
      "min": [
        0.7529410123825073,
        0.7529410123825073,
        0.7529410123825073,
        1.0
      ],
      "type": "VEC4"
    },
    {
      "bufferView": 1,
      "componentType": 5126,
      "count": 65532,
      "max": [
        0.9886299967765808,
        0.9992079734802246
      ],
      "min": [
        0.0005729999975301325,
        0.07668299973011017
      ],
      "type": "VEC2"
    },
    {
      "bufferView": 0,
      "componentType": 5125,
      "count": 318675,
      "type": "SCALAR"
    },
    {
      "bufferView": 2,
      "byteOffset": 1572768,
      "componentType": 5126,
      "count": 65532,
      "max": [
        11.195951461791992,
        20.964969635009766,
        12.633254051208496
      ],
      "min": [
        -10.2981595993042,
        -13.484391212463379,
        -15.236235618591309
      ],
      "type": "VEC3"
    },
    {
      "bufferView": 2,
      "byteOffset": 2359152,
      "componentType": 5126,
      "count": 65532,
      "max": [
        1.0,
        0.848601758480072,
        0.9998674988746643
      ],
      "min": [
        -0.9999971389770508,
        -0.9999991655349731,
        -0.9999919533729553
      ],
      "type": "VEC3"
    },
    {
      "bufferView": 3,
      "byteOffset": 1048512,
      "componentType": 5126,
      "count": 65532,
      "max": [
        0.7529410123825073,
        0.7529410123825073,
        0.7529410123825073,
        1.0
      ],
      "min": [
        0.7529410123825073,
        0.7529410123825073,
        0.7529410123825073,
        1.0
      ],
      "type": "VEC4"
    },
    {
      "bufferView": 1,
      "byteOffset": 524256,
      "componentType": 5126,
      "count": 65532,
      "max": [
        0.9219570159912109,
        0.997992992401123
      ],
      "min": [
        0.0010999999940395355,
        0.08901499956846237
      ],
      "type": "VEC2"
    },
    {
      "bufferView": 0,
      "byteOffset": 1274700,
      "componentType": 5125,
      "count": 323280,
      "type": "SCALAR"
    },
    {
      "bufferView": 2,
      "byteOffset": 3145536,
      "componentType": 5126,
      "count": 65532,
      "max": [
        16.957304000854492,
        20.909425735473633,
        13.297313690185547
      ],
      "min": [
        -12.195941925048828,
        -13.515474319458008,
        -15.13554573059082
      ],
      "type": "VEC3"
    },
    {
      "bufferView": 2,
      "byteOffset": 3931920,
      "componentType": 5126,
      "count": 65532,
      "max": [
        1.0,
        0.8452299237251282,
        0.999984622001648
      ],
      "min": [
        -0.9999998807907104,
        -0.9999991655349731,
        -0.9999485015869141
      ],
      "type": "VEC3"
    },
    {
      "bufferView": 3,
      "byteOffset": 2097024,
      "componentType": 5126,
      "count": 65532,
      "max": [
        0.7529410123825073,
        0.7529410123825073,
        0.7529410123825073,
        1.0
      ],
      "min": [
        0.7529410123825073,
        0.7529410123825073,
        0.7529410123825073,
        1.0
      ],
      "type": "VEC4"
    },
    {
      "bufferView": 1,
      "byteOffset": 1048512,
      "componentType": 5126,
      "count": 65532,
      "max": [
        0.9956009984016418,
        0.9992079734802246
      ],
      "min": [
        0.0020979999098926783,
        0.0866980031132698
      ],
      "type": "VEC2"
    },
    {
      "bufferView": 0,
      "byteOffset": 2567820,
      "componentType": 5125,
      "count": 262248,
      "type": "SCALAR"
    },
    {
      "bufferView": 2,
      "byteOffset": 4718304,
      "componentType": 5126,
      "count": 10224,
      "max": [
        16.751182556152344,
        20.850618362426758,
        13.247833251953125
      ],
      "min": [
        -11.912439346313477,
        -13.52224063873291,
        -15.348698616027832
      ],
      "type": "VEC3"
    },
    {
      "bufferView": 2,
      "byteOffset": 4840992,
      "componentType": 5126,
      "count": 10224,
      "max": [
        0.9999929070472717,
        0.8220272064208984,
        0.9997836947441101
      ],
      "min": [
        -0.9999984502792358,
        -0.9999983906745911,
        -0.9998680353164673
      ],
      "type": "VEC3"
    },
    {
      "bufferView": 3,
      "byteOffset": 3145536,
      "componentType": 5126,
      "count": 10224,
      "max": [
        0.7529410123825073,
        0.7529410123825073,
        0.7529410123825073,
        1.0
      ],
      "min": [
        0.7529410123825073,
        0.7529410123825073,
        0.7529410123825073,
        1.0
      ],
      "type": "VEC4"
    },
    {
      "bufferView": 1,
      "byteOffset": 1572768,
      "componentType": 5126,
      "count": 10224,
      "max": [
        0.9937229752540588,
        0.9979079961776733
      ],
      "min": [
        0.0005729999975301325,
        0.08528400212526321
      ],
      "type": "VEC2"
    },
    {
      "bufferView": 0,
      "byteOffset": 3616812,
      "componentType": 5125,
      "count": 16056,
      "type": "SCALAR"
    }
  ],
  "asset": {
    "extras": {
      "author": "electricarchaeo (https://sketchfab.com/electricarchaeo)",
      "license": "CC-BY-4.0 (http://creativecommons.org/licenses/by/4.0/)",
      "source": "https://sketchfab.com/3d-models/gravestone2-c287761136a8421ca9856edf8efd595e",
      "title": "Gravestone2"
    },
    "generator": "Sketchfab-12.68.0",
    "version": "2.0"
  },
  "bufferViews": [
    {
      "buffer": 0,
      "byteLength": 3681036,
      "name": "floatBufferViews",
      "target": 34963
    },
    {
      "buffer": 0,
      "byteLength": 1654560,
      "byteOffset": 3681036,
      "byteStride": 8,
      "name": "floatBufferViews",
      "target": 34962
    },
    {
      "buffer": 0,
      "byteLength": 4963680,
      "byteOffset": 5335596,
      "byteStride": 12,
      "name": "floatBufferViews",
      "target": 34962
    },
    {
      "buffer": 0,
      "byteLength": 3309120,
      "byteOffset": 10299276,
      "byteStride": 16,
      "name": "floatBufferViews",
      "target": 34962
    }
  ],
  "buffers": [
    {
      "byteLength": 13608396,
      "uri": "scene.bin"
    }
  ],
  "images": [
    {
      "uri": "textures/material_0_baseColor.jpeg"
    }
  ],
  "materials": [
    {
      "doubleSided": true,
      "name": "material_0",
      "pbrMetallicRoughness": {
        "baseColorTexture": {
          "index": 0
        },
        "metallicFactor": 0.0,
        "roughnessFactor": 0.6
      }
    }
  ],
  "meshes": [
    {
      "name": "Object_0",
      "primitives": [
        {
          "attributes": {
            "COLOR_0": 2,
            "NORMAL": 1,
            "POSITION": 0,
            "TEXCOORD_0": 3
          },
          "indices": 4,
          "material": 0,
          "mode": 4
        }
      ]
    },
    {
      "name": "Object_1",
      "primitives": [
        {
          "attributes": {
            "COLOR_0": 7,
            "NORMAL": 6,
            "POSITION": 5,
            "TEXCOORD_0": 8
          },
          "indices": 9,
          "material": 0,
          "mode": 4
        }
      ]
    },
    {
      "name": "Object_2",
      "primitives": [
        {
          "attributes": {
            "COLOR_0": 12,
            "NORMAL": 11,
            "POSITION": 10,
            "TEXCOORD_0": 13
          },
          "indices": 14,
          "material": 0,
          "mode": 4
        }
      ]
    },
    {
      "name": "Object_3",
      "primitives": [
        {
          "attributes": {
            "COLOR_0": 17,
            "NORMAL": 16,
            "POSITION": 15,
            "TEXCOORD_0": 18
          },
          "indices": 19,
          "material": 0,
          "mode": 4
        }
      ]
    }
  ],
  "nodes": [
    {
      "children": [
        1
      ],
      "matrix": [
        0.0,
        -2.220446049250313e-16,
        1.0,
        0.0,
        0.0,
        -1.0,
        -2.220446049250313e-16,
        0.0,
        1.0,
        0.0,
        0.0,
        0.0,
        3.4113693237304688,
        2.675127983093263,
        -6.08649730682373,
        1.0
      ],
      "name": "Sketchfab_model"
    },
    {
      "children": [
        2,
        3,
        4,
        5
      ],
      "name": "mesh.obj.cleaner"
    },
    {
      "mesh": 0,
      "name": "Object_2"
    },
    {
      "mesh": 1,
      "name": "Object_3"
    },
    {
      "mesh": 2,
      "name": "Object_4"
    },
    {
      "mesh": 3,
      "name": "Object_5"
    }
  ],
  "samplers": [
    {
      "magFilter": 9729,
      "minFilter": 9987,
      "wrapS": 10497,
      "wrapT": 10497
    }
  ],
  "scene": 0,
  "scenes": [
    {
      "name": "Sketchfab_Scene",
      "nodes": [
        0
      ]
    }
  ],
  "textures": [
    {
      "sampler": 0,
      "source": 0
    }
  ]
}
